<svg xmlns="http://www.w3.org/2000/svg" xmlns:xlink="http://www.w3.org/1999/xlink" width="88" height="88" viewBox="0 0 88 88"><defs><clipPath id="a"><rect width="47.153" height="47.153" fill="none"/></clipPath></defs><g transform="translate(-999 -342)"><g transform="translate(999 342)" fill="rgba(0,0,0,0.3)"><path d="M 44 85.5 C 36.45762634277344 85.5 29.27145385742188 83.51137542724609 22.64108085632324 79.58936309814453 C 16.65938758850098 76.05277252197266 11.62819957733154 70.95805358886719 8.090986251831055 64.85570526123047 C 6.295986652374268 61.75901412963867 4.908480167388916 58.4401741027832 3.967026710510254 54.99138641357422 C 2.993573427200317 51.42544174194336 2.5 47.72740173339844 2.5 44 C 2.5 38.39642715454102 3.596906661987305 32.96181488037109 5.760253429412842 27.84709358215332 C 7.850319862365723 22.90559959411621 10.84297370910645 18.46715927124023 14.65506649017334 14.65506649017334 C 18.46715927124023 10.84297370910645 22.90559959411621 7.850319862365723 27.84709358215332 5.760253429412842 C 32.96181488037109 3.596906661987305 38.39642715454102 2.5 44 2.5 C 49.60357284545898 2.5 55.03818511962891 3.596906661987305 60.15290832519531 5.760253429412842 C 65.09439849853516 7.850319862365723 69.5328369140625 10.84297370910645 73.34493255615234 14.65506649017334 C 77.15702819824219 18.46715927124023 80.14968109130859 22.90559959411621 82.23974609375 27.84709358215332 C 84.40309143066406 32.96181488037109 85.5 38.39642715454102 85.5 44 C 85.5 49.60357284545898 84.40309143066406 55.03818511962891 82.23974609375 60.15290832519531 C 80.14968109130859 65.09439849853516 77.15702819824219 69.5328369140625 73.34493255615234 73.34493255615234 C 69.5328369140625 77.15702819824219 65.09439849853516 80.14968109130859 60.15290832519531 82.23974609375 C 55.03818511962891 84.40309143066406 49.60357284545898 85.5 44 85.5 Z" stroke="none"/><path d="M 44 5 C 38.73283386230469 5 33.6258659362793 6.030464172363281 28.82096481323242 8.062767028808594 C 24.17748260498047 10.02680206298828 20.00613403320313 12.83953094482422 16.42283630371094 16.42283630371094 C 12.83953094482422 20.00613403320313 10.02680206298828 24.17748260498047 8.062767028808594 28.82096481323242 C 6.030464172363281 33.6258659362793 5 38.73283386230469 5 44 C 5 47.50505065917969 5.463882446289063 50.98158264160156 6.378768920898438 54.33301544189453 C 7.263381958007813 57.57353210449219 8.567146301269531 60.69206619262695 10.25388336181641 63.60196685791016 C 13.57662963867188 69.33432006835938 18.29986572265625 74.11841583251953 23.91390228271484 77.43761444091797 C 30.15358352661133 81.12854766845703 36.91151809692383 83 44 83 C 49.26716613769531 83 54.3741340637207 81.96953582763672 59.17903137207031 79.93723297119141 C 63.82251739501953 77.97319793701172 67.99386596679688 75.16046905517578 71.57716369628906 71.57716369628906 C 75.16046905517578 67.99386596679688 77.97319793701172 63.82251739501953 79.93723297119141 59.17903137207031 C 81.96953582763672 54.3741340637207 83 49.26716613769531 83 44 C 83 38.73283386230469 81.96953582763672 33.6258659362793 79.93723297119141 28.82096481323242 C 77.97319793701172 24.17748260498047 75.16046905517578 20.00613403320313 71.57716369628906 16.42283630371094 C 67.99386596679688 12.83953094482422 63.82251739501953 10.02680206298828 59.17903137207031 8.062767028808594 C 54.3741340637207 6.030464172363281 49.26716613769531 5 44 5 M 44 0 C 68.300537109375 0 88 19.699462890625 88 44 C 88 68.300537109375 68.300537109375 88 44 88 C 35.83503341674805 88 28.18951797485352 85.77601623535156 21.3682861328125 81.74108123779297 C 8.685432434082031 74.2425537109375 0 60.13556671142578 0 44 C 0 19.699462890625 19.699462890625 0 44 0 Z" stroke="none" fill="#fff"/></g><g transform="translate(1014.847 362)" clip-path="url(#a)"><g transform="translate(-806.147 -1028.581)"><path d="M0,4.454,33.342,0,28.888,33.342Z" transform="translate(829.724 1028.581) rotate(45)" fill="#fff"/></g></g></g></svg>