<svg id="Layer_1" data-name="Layer 1" xmlns="http://www.w3.org/2000/svg" width="100.55" height="29.82" viewBox="0 0 100.55 29.82"><defs><style>.cls-1,.cls-2{isolation:isolate;}.cls-2{font-size:16px;font-family:Montserrat-Bold, Montserrat;font-weight:700;letter-spacing:0.04em;}.cls-2,.cls-4{fill:#fff;}.cls-3{letter-spacing:0.05em;}</style></defs><g class="cls-1"><text class="cls-2" transform="translate(43.06 19.43)">L<tspan class="cls-3" x="10.27" y="0">OGIN</tspan></text></g><path class="cls-4" d="M25.94.33A1.38,1.38,0,0,0,24.84,0L8.76,2.69A1.3,1.3,0,0,0,7.63,4v4.9a1.35,1.35,0,1,0,2.7.1V5.14L23.74,2.91v24L10.33,24.67V20.9A1.36,1.36,0,0,0,9,19.5a1.34,1.34,0,0,0-1.4,1.3.17.17,0,0,0,0,.1v4.9a1.31,1.31,0,0,0,1.13,1.32l16.08,2.67.22,0a1.54,1.54,0,0,0,.88-.31,1.31,1.31,0,0,0,.47-1V1.3A1.41,1.41,0,0,0,25.94.33Z" transform="translate(-2.15 0)"/><path class="cls-4" d="M13.37,19.55a1.31,1.31,0,0,0,0,1.85l0,0a1.38,1.38,0,0,0,1.89,0l5.59-5.59a1.32,1.32,0,0,0,0-1.86l0,0L15.26,8.37a1.33,1.33,0,0,0-1.89,1.88l3.3,3.3H3.45a1.35,1.35,0,0,0,0,2.7H16.7Z" transform="translate(-2.15 0)"/></svg>